<svg width="52" height="51" viewBox="0 0 52 51" fill="none" xmlns="http://www.w3.org/2000/svg">
<path d="M5.17096 25.4328C5.17215 30.479 6.97315 35.3592 10.2502 39.1964C13.5273 43.0336 18.0656 45.5761 23.0494 46.3669V31.5569H17.6733V25.4328H23.0557V20.7709C22.9369 19.6798 23.0597 18.5759 23.4156 17.5376C23.7714 16.4993 24.3515 15.5521 25.1147 14.7633C25.8778 13.9744 26.8053 13.3633 27.8313 12.9733C28.8572 12.5833 29.9564 12.424 31.0509 12.5066C32.6402 12.5321 34.2295 12.674 35.7976 12.9304V18.1412H33.1191C32.6639 18.0816 32.201 18.125 31.7649 18.2683C31.3287 18.4116 30.9303 18.6511 30.5991 18.969C30.2679 19.287 30.0124 19.6753 29.8514 20.1053C29.6905 20.5353 29.6282 20.996 29.6693 21.4533V25.4328H35.5412L34.6024 31.559H29.6693V46.3669C33.6692 45.7348 37.4043 43.9697 40.4323 41.2807C43.4602 38.5917 45.6543 35.0914 46.7546 31.1941C47.855 27.2969 47.8156 23.166 46.6411 19.2904C45.4667 15.4149 43.2063 11.957 40.1276 9.32625C37.0489 6.69547 33.2808 5.00196 29.2696 4.44621C25.2583 3.89045 21.1717 4.49574 17.4938 6.19039C13.8158 7.88505 10.7004 10.5981 8.51652 14.0084C6.33261 17.4186 5.1716 21.3832 5.17096 25.4328V25.4328Z" fill="#D3D3D3"/>
</svg>
