<svg width="52" height="51" viewBox="0 0 52 51" fill="none" xmlns="http://www.w3.org/2000/svg">
<g clip-path="url(#clip0_106_42)">
<path d="M26.3494 0C19.4376 0 18.5762 0.033375 15.8712 0.147804C13.1551 0.281304 11.3179 0.702465 9.69684 1.33182C8.00022 1.97234 6.4637 2.97517 5.19439 4.27041C3.89554 5.53675 2.89215 7.07412 2.2558 8.77286C1.62645 10.3939 1.20528 12.2311 1.07178 14.9472C0.949409 17.6538 0.923981 18.5136 0.923981 25.4254C0.923981 32.3372 0.957356 33.1986 1.07178 35.9036C1.20528 38.6117 1.62645 40.4569 2.2558 42.0779C2.89632 43.7746 3.89915 45.3111 5.19439 46.5804C6.46073 47.8793 7.99811 48.8826 9.69684 49.519C11.3179 50.1404 13.1631 50.5695 15.8712 50.703C18.5778 50.8254 19.4376 50.8508 26.3494 50.8508C33.2612 50.8508 34.1226 50.8174 36.8276 50.703C39.5357 50.5695 41.3809 50.1388 43.0019 49.519C44.6986 48.8785 46.2351 47.8756 47.5044 46.5804C48.8049 45.3154 49.8086 43.7777 50.443 42.0779C51.0644 40.4569 51.4935 38.6117 51.627 35.9036C51.7494 33.197 51.7748 32.3372 51.7748 25.4254C51.7748 18.5136 51.7414 17.6522 51.627 14.9472C51.4935 12.2391 51.0628 10.3844 50.443 8.77286C49.8025 7.07624 48.7996 5.53972 47.5044 4.27041C46.2394 2.96988 44.7016 1.96623 43.0019 1.33182C41.3809 0.702465 39.5357 0.281304 36.8276 0.147804C34.121 0.0254286 33.2612 0 26.3494 0ZM26.3494 4.57715C33.1372 4.57715 33.9478 4.61052 36.6305 4.72495C39.105 4.84097 40.4527 5.25418 41.3475 5.60382C42.4537 6.01215 43.4549 6.66205 44.2781 7.5062C45.1208 8.326 45.7683 9.3249 46.1726 10.4289C46.5222 11.3237 46.9354 12.6714 47.0514 15.1459C47.1659 17.8286 47.1992 18.6407 47.1992 25.427C47.1992 32.2132 47.1659 33.0254 47.0419 35.7081C46.9084 38.1826 46.4952 39.5303 46.1471 40.4251C45.6656 41.6186 45.1284 42.453 44.2416 43.3557C43.4155 44.1946 42.415 44.8414 41.3109 45.2502C40.4273 45.5998 39.0605 46.013 36.5764 46.129C33.8794 46.2435 33.0848 46.2768 26.2795 46.2768C19.4741 46.2768 18.6811 46.2435 15.9809 46.1195C13.5064 45.986 12.1412 45.5728 11.2464 45.2247C10.0385 44.7432 9.21052 44.206 8.3237 43.3192C7.42893 42.4244 6.85997 41.5726 6.42132 40.3885C6.06532 39.5049 5.65847 38.1381 5.52655 35.6541C5.43597 32.9888 5.39305 32.1624 5.39305 25.3889C5.39305 18.6185 5.43597 17.7905 5.52655 15.0919C5.65847 12.6078 6.06532 11.2442 6.42132 10.3574C6.85997 9.14793 7.43052 8.3215 8.3237 7.42674C9.20893 6.5415 10.0385 5.96936 11.2464 5.52118C12.1412 5.17313 13.473 4.75991 15.957 4.63595C18.6541 4.539 19.4487 4.50404 26.2445 4.50404L26.3494 4.57715ZM26.3494 12.3758C24.6351 12.3751 22.9375 12.7123 21.3536 13.3681C19.7696 14.0238 18.3305 14.9853 17.1183 16.1975C15.9061 17.4096 14.9446 18.8488 14.2889 20.4327C13.6331 22.0167 13.296 23.7143 13.2966 25.4286C13.296 27.1429 13.6331 28.8405 14.2889 30.4244C14.9446 32.0083 15.9061 33.4475 17.1183 34.6597C18.3305 35.8719 19.7696 36.8333 21.3536 37.4891C22.9375 38.1448 24.6351 38.482 26.3494 38.4814C28.0637 38.482 29.7613 38.1448 31.3452 37.4891C32.9291 36.8333 34.3683 35.8719 35.5805 34.6597C36.7927 33.4475 37.7541 32.0083 38.4099 30.4244C39.0656 28.8405 39.4028 27.1429 39.4022 25.4286C39.4028 23.7143 39.0656 22.0167 38.4099 20.4327C37.7541 18.8488 36.7927 17.4096 35.5805 16.1975C34.3683 14.9853 32.9291 14.0238 31.3452 13.3681C29.7613 12.7123 28.0637 12.3751 26.3494 12.3758V12.3758ZM26.3494 33.9042C21.6642 33.9042 17.8737 30.1138 17.8737 25.4286C17.8737 20.7434 21.6642 16.9529 26.3494 16.9529C31.0346 16.9529 34.8251 20.7434 34.8251 25.4286C34.8251 30.1138 31.0346 33.9042 26.3494 33.9042ZM42.9797 11.8545C42.9788 12.6645 42.6565 13.441 42.0834 14.0135C41.5104 14.586 40.7335 14.9075 39.9235 14.9075C39.523 14.9075 39.1264 14.8286 38.7564 14.6754C38.3863 14.5221 38.0501 14.2974 37.7669 14.0142C37.4837 13.731 37.2591 13.3948 37.1058 13.0248C36.9525 12.6548 36.8736 12.2582 36.8736 11.8577C36.8736 11.4572 36.9525 11.0606 37.1058 10.6905C37.2591 10.3205 37.4837 9.98431 37.7669 9.7011C38.0501 9.4179 38.3863 9.19325 38.7564 9.03998C39.1264 8.88671 39.523 8.80783 39.9235 8.80783C41.6034 8.80783 42.9797 10.1746 42.9797 11.8545V11.8545Z" fill="#D3D3D3"/>
</g>
<defs>
<clipPath id="clip0_106_42">
<rect width="50.8572" height="50.8572" fill="white" transform="translate(0.920715)"/>
</clipPath>
</defs>
</svg>
