<svg width="51" height="51" viewBox="0 0 51 51" fill="none" xmlns="http://www.w3.org/2000/svg">
<path d="M40.3679 10.4045C38.4251 8.44214 36.1111 6.88621 33.5607 5.8275C31.0104 4.76878 28.2747 4.22848 25.5134 4.2381C13.9433 4.2381 4.51358 13.6679 4.51358 25.2379C4.51358 28.9462 5.48834 32.5486 7.31072 35.7272L4.34406 46.6191L15.4691 43.6948C18.5417 45.3688 21.9957 46.2588 25.5134 46.2588C37.0834 46.2588 46.5131 36.8291 46.5131 25.2591C46.5131 19.6436 44.3305 14.3672 40.3679 10.4045V10.4045ZM25.5134 42.6988C22.3772 42.6988 19.3045 41.8512 16.6133 40.2619L15.9776 39.8805L9.3662 41.6181L11.125 35.1762L10.7012 34.5193C8.95881 31.7369 8.03362 28.5208 8.0312 25.2379C8.0312 15.6174 15.8717 7.77691 25.4922 7.77691C30.1541 7.77691 34.5405 9.5993 37.825 12.905C39.4514 14.5239 40.7402 16.4495 41.6168 18.5701C42.4935 20.6908 42.9405 22.9644 42.9319 25.2591C42.9743 34.8796 35.1338 42.6988 25.5134 42.6988V42.6988ZM35.0915 29.6455C34.5617 29.3912 31.9765 28.1198 31.5103 27.9291C31.0229 27.7595 30.6838 27.6748 30.3236 28.1834C29.9634 28.7131 28.9674 29.8998 28.6707 30.2388C28.3741 30.5991 28.0562 30.6415 27.5264 30.366C26.9967 30.1117 25.3014 29.5395 23.3095 27.7595C21.7414 26.361 20.7031 24.6445 20.3853 24.1148C20.0886 23.585 20.3429 23.3095 20.6183 23.0341C20.8514 22.801 21.1481 22.4195 21.4024 22.1229C21.6567 21.8262 21.7626 21.5931 21.9322 21.2541C22.1017 20.8938 22.0169 20.5972 21.8898 20.3429C21.7626 20.0886 20.7031 17.5034 20.2793 16.4438C19.8555 15.4267 19.4105 15.5538 19.0926 15.5326H18.0755C17.7153 15.5326 17.1643 15.6598 16.6769 16.1895C16.2107 16.7193 14.8545 17.9907 14.8545 20.576C14.8545 23.1612 16.7405 25.6617 16.9948 26.0007C17.2491 26.361 20.7031 31.6586 25.9584 33.926C27.2086 34.4769 28.1834 34.7948 28.9462 35.0279C30.1965 35.4305 31.3407 35.3669 32.2519 35.2398C33.2691 35.0915 35.3669 33.9684 35.7907 32.7393C36.2357 31.5103 36.2357 30.4719 36.0874 30.2388C35.9391 30.0057 35.6212 29.8998 35.0915 29.6455V29.6455Z" fill="#D3D3D3"/>
</svg>
